<?xml version="1.0" encoding="iso-8859-1"?>
<!-- Generator: Adobe Illustrator 19.0.0, SVG Export Plug-In . SVG Version: 6.00 Build 0)  -->
<svg version="1.1" id="Layer_1" xmlns="http://www.w3.org/2000/svg" xmlns:xlink="http://www.w3.org/1999/xlink" x="0px" y="0px"
	 viewBox="0 0 491.84 491.84" style="enable-background:new 0 0 491.84 491.84;" xml:space="preserve">
<g>
	<g>
		<path d="M481.64,205.12l-123-90.7c-8.3-6.3-21.9-5.2-28.1,4.2c-6.3,8.3-5.2,21.9,4.2,28.1l103.1,76l-192.9,148.2l-191.8-148.3
			l100.9-75.9c9.4-6.3,10.4-18.8,4.2-28.1c-6.3-9.4-18.8-10.4-28.1-4.2l-122,91.7c-5.9,3.9-8.5,10.3-8.1,16.8c0,0.4,0,0.8,0,1.1
			v245.9c0,14.3,10.4,20.8,20.8,20.8h448.1c18.4,0,22.9-8.6,22.9-20.8v-245.9C491.84,215.22,483.94,206.62,481.64,205.12z
			 M41.74,266.52l107.3,82.6l-107.3,80.5C41.74,429.62,41.74,266.52,41.74,266.52z M81.74,450.12l101.7-75l49,37.5
			c7.3,5.2,17.7,5.2,25,0l49-38.6l101.4,76.1H81.74z M449.14,430.32l-108.4-81.3l108.4-83.4V430.32z"/>
		<path d="M167.84,209.42l63.6,56.3c11.5,9.3,23.3,4.2,27.1,1l63.6-57.3c8.3-8.3,9.4-20.8,2.1-29.2s-20.8-9.4-29.2-2.1l-29.2,25.5
			V21.92c0-11.5-9.4-20.8-20.8-20.8s-20.8,9.4-20.8,20.8v181.8l-29.2-25.5c-8.3-7.3-21.9-6.3-29.2,2.1S159.44,202.12,167.84,209.42z
			"/>
	</g>
</g>
<g>
</g>
<g>
</g>
<g>
</g>
<g>
</g>
<g>
</g>
<g>
</g>
<g>
</g>
<g>
</g>
<g>
</g>
<g>
</g>
<g>
</g>
<g>
</g>
<g>
</g>
<g>
</g>
<g>
</g>
</svg>
